<?xml version="1.0" encoding="UTF-8"?>
<!DOCTYPE svg PUBLIC "-//W3C//DTD SVG 1.1//EN" "http://www.w3.org/Graphics/SVG/1.1/DTD/svg11.dtd">
<svg xmlns="http://www.w3.org/2000/svg" version="1.1" width="483px" height="150px" style="shape-rendering:geometricPrecision; text-rendering:geometricPrecision; image-rendering:optimizeQuality; fill-rule:evenodd; clip-rule:evenodd" xmlns:xlink="http://www.w3.org/1999/xlink">
<g><path style="opacity:0.597" fill="#0ea5ea" d="M 38.5,12.5 C 41.8984,12.1796 45.2317,12.513 48.5,13.5C 56.0458,17.7725 63.7125,21.7725 71.5,25.5C 79.6208,21.6059 87.6208,17.4393 95.5,13C 98.5,12.3333 101.5,12.3333 104.5,13C 106.049,14.214 107.215,15.714 108,17.5C 108.667,27.5 108.667,37.5 108,47.5C 96.5811,54.1266 85.0811,60.6266 73.5,67C 70.2975,66.9137 67.2975,65.9137 64.5,64C 54.9182,58.6263 45.4182,53.1263 36,47.5C 35.3333,37.1667 35.3333,26.8333 36,16.5C 36.6622,15.0161 37.4955,13.6828 38.5,12.5 Z"/></g>
<g><path style="opacity:0.885" fill="#495769" d="M 151.5,36.5 C 158.5,36.5 165.5,36.5 172.5,36.5C 174.167,72.495 175.834,72.495 177.5,36.5C 184.5,36.5 191.5,36.5 198.5,36.5C 198.5,63.8333 198.5,91.1667 198.5,118.5C 193.5,118.5 188.5,118.5 183.5,118.5C 183.823,82.5869 182.823,82.5869 180.5,118.5C 176.833,118.5 173.167,118.5 169.5,118.5C 167.516,83.9051 166.183,83.9051 165.5,118.5C 160.833,118.5 156.167,118.5 151.5,118.5C 151.5,91.1667 151.5,63.8333 151.5,36.5 Z"/></g>
<g><path style="opacity:0.691" fill="#495769" d="M 261.5,36.5 C 267.167,36.5 272.833,36.5 278.5,36.5C 278.665,40.1817 278.499,43.8484 278,47.5C 277.5,48 277,48.5 276.5,49C 271.581,49.8015 266.748,49.6349 262,48.5C 261.501,44.5138 261.334,40.5138 261.5,36.5 Z"/></g>
<g><path style="opacity:0.873" fill="#495769" d="M 368.5,36.5 C 376.507,36.3336 384.507,36.5003 392.5,37C 401.127,39.0769 405.294,44.5769 405,53.5C 405.667,70.5 405.667,87.5 405,104.5C 405.557,111.233 402.724,115.733 396.5,118C 387.173,118.5 377.839,118.666 368.5,118.5C 368.5,91.1667 368.5,63.8333 368.5,36.5 Z M 385.5,52.5 C 386.79,53.0577 387.623,54.0577 388,55.5C 388.667,69.8333 388.667,84.1667 388,98.5C 387.781,99.938 387.281,101.271 386.5,102.5C 385.501,85.8467 385.167,69.18 385.5,52.5 Z"/></g>
<g><path style="opacity:0.868" fill="#495769" d="M 240.5,42.5 C 245.833,42.5 251.167,42.5 256.5,42.5C 256.5,45.8333 256.5,49.1667 256.5,52.5C 257.833,52.5 259.167,52.5 260.5,52.5C 260.5,56.5 260.5,60.5 260.5,64.5C 259.167,64.5 257.833,64.5 256.5,64.5C 256.333,78.1707 256.5,91.8374 257,105.5C 258.011,106.337 259.178,106.67 260.5,106.5C 260.5,110.5 260.5,114.5 260.5,118.5C 255.821,118.666 251.155,118.499 246.5,118C 244.714,117.215 243.214,116.049 242,114.5C 240.544,97.9034 240.044,81.2367 240.5,64.5C 239.5,64.5 238.5,64.5 237.5,64.5C 237.5,60.5 237.5,56.5 237.5,52.5C 238.5,52.5 239.5,52.5 240.5,52.5C 240.5,49.1667 240.5,45.8333 240.5,42.5 Z"/></g>
<g><path style="opacity:0.864" fill="#495769" d="M 212.5,50.5 C 220.461,49.0461 227.294,51.0461 233,56.5C 234.562,58.9573 235.562,61.624 236,64.5C 236.667,77.8333 236.667,91.1667 236,104.5C 231.803,119.027 222.637,123.193 208.5,117C 204.426,113.457 202.259,108.957 202,103.5C 201.112,89.4586 201.446,75.4586 203,61.5C 204.943,56.7274 208.11,53.0608 212.5,50.5 Z M 218.5,63.5 C 219.268,64.2625 219.768,65.2625 220,66.5C 220.167,72.6667 220.333,78.8333 220.5,85C 220.63,91.9351 220.13,98.7684 219,105.5C 218.5,91.504 218.333,77.504 218.5,63.5 Z"/></g>
<g><path style="opacity:0.841" fill="#495769" d="M 261.5,50.5 C 267.093,50.1934 272.593,50.5268 278,51.5C 278.667,73.5 278.667,95.5 278,117.5C 272.593,118.473 267.093,118.807 261.5,118.5C 261.5,95.8333 261.5,73.1667 261.5,50.5 Z"/></g>
<g><path style="opacity:0.867" fill="#495769" d="M 290.5,50.5 C 306.703,48.5376 315.037,55.7043 315.5,72C 315.749,83.6961 315.249,95.5294 314,107.5C 309.943,117.758 302.443,121.591 291.5,119C 284.473,116.799 280.973,111.965 281,104.5C 280.333,91.5 280.333,78.5 281,65.5C 281.66,58.8319 284.827,53.8319 290.5,50.5 Z M 296.5,63.5 C 297.83,70.1333 298.497,77.1333 298.5,84.5C 298.167,91.5 297.833,98.5 297.5,105.5C 296.501,91.5159 296.167,77.5159 296.5,63.5 Z"/></g>
<g><path style="opacity:0.853" fill="#495769" d="M 318.5,50.5 C 323.833,50.5 329.167,50.5 334.5,50.5C 334.351,51.552 334.517,52.552 335,53.5C 338.338,50.6819 342.171,49.8485 346.5,51C 348.658,52.457 350.491,54.2903 352,56.5C 353.453,77.1128 353.953,97.7795 353.5,118.5C 347.833,118.5 342.167,118.5 336.5,118.5C 335.833,45.1667 335.167,45.1667 334.5,118.5C 329.167,118.5 323.833,118.5 318.5,118.5C 318.5,95.8333 318.5,73.1667 318.5,50.5 Z"/></g>
<g><path style="opacity:0.883" fill="#495769" d="M 419.5,50.5 C 431.488,48.2332 438.988,52.8998 442,64.5C 442.5,71.8258 442.666,79.1591 442.5,86.5C 436.5,86.5 430.5,86.5 424.5,86.5C 424.17,92.8682 424.504,99.2015 425.5,105.5C 426.192,104.975 426.692,104.308 427,103.5C 427.499,99.1794 427.666,94.8461 427.5,90.5C 432.5,90.5 437.5,90.5 442.5,90.5C 442.666,95.8437 442.499,101.177 442,106.5C 438.794,117.194 431.628,121.36 420.5,119C 414.667,117.167 410.833,113.333 409,107.5C 408.333,92.5 408.333,77.5 409,62.5C 410.963,57.0437 414.463,53.0437 419.5,50.5 Z M 424.5,63.5 C 425.794,65.0478 426.461,67.0478 426.5,69.5C 426.167,71.5 425.833,73.5 425.5,75.5C 424.509,71.5546 424.176,67.5546 424.5,63.5 Z"/></g>
<g><path style="opacity:0.841" fill="#495769" d="M 442.5,50.5 C 447.43,50.1975 452.263,50.5308 457,51.5C 457.835,63.181 458.835,74.8477 460,86.5C 460.445,74.8204 461.112,63.1537 462,51.5C 466.401,50.5333 470.901,50.2 475.5,50.5C 474.308,73.2319 472.308,95.8986 469.5,118.5C 462.578,118.812 455.744,118.479 449,117.5C 446.503,95.1918 444.336,72.8585 442.5,50.5 Z"/></g>
<g><path style="opacity:0.602" fill="#0ea5ea" d="M 29.5,54.5 C 30.8734,54.3433 32.2068,54.51 33.5,55C 43.3344,60.7495 53.0011,66.7495 62.5,73C 64.0249,74.0086 65.6916,74.5086 67.5,74.5C 67.5,88.8333 67.5,103.167 67.5,117.5C 59.1874,120.958 51.1874,125.125 43.5,130C 39.0906,131.262 35.2572,130.428 32,127.5C 31.7115,118.818 31.2115,110.152 30.5,101.5C 30.5507,99.9002 30.8841,98.4002 31.5,97C 23.4348,91.2721 15.1015,85.9388 6.5,81C 2.32333,76.0462 2.65667,71.3796 7.5,67C 15.0584,63.0591 22.3917,58.8925 29.5,54.5 Z"/></g>
<g><path style="opacity:0.606" fill="#0ea5ea" d="M 108.5,54.5 C 118.792,58.3966 128.292,63.73 137,70.5C 139.275,74.6866 138.441,78.1866 134.5,81C 126.234,85.6042 118.234,90.6042 110.5,96C 110.833,96.3333 111.167,96.6667 111.5,97C 110.68,106.756 110.18,116.59 110,126.5C 109.535,127.931 108.701,129.097 107.5,130C 104.167,130.667 100.833,130.667 97.5,130C 90.3291,125.58 82.9958,121.414 75.5,117.5C 74.3339,103.512 74.1672,89.5119 75,75.5C 86.0736,68.2413 97.2402,61.2413 108.5,54.5 Z"/></g>
</svg>
