<?xml version="1.0" encoding="UTF-8"?>
<!DOCTYPE svg PUBLIC "-//W3C//DTD SVG 1.1//EN" "http://www.w3.org/Graphics/SVG/1.1/DTD/svg11.dtd">
<svg xmlns="http://www.w3.org/2000/svg" version="1.1" width="483px" height="150px" style="shape-rendering:geometricPrecision; text-rendering:geometricPrecision; image-rendering:optimizeQuality; fill-rule:evenodd; clip-rule:evenodd" xmlns:xlink="http://www.w3.org/1999/xlink">
<g><path style="opacity:0.612" fill="#0ea5ea" d="M 37.5,14.5 C 40.1873,14.3359 42.854,14.5026 45.5,15C 53.7168,19.6939 61.8834,24.5272 70,29.5C 78.0379,24.6334 86.2046,19.9667 94.5,15.5C 99.6856,13.2777 103.519,14.6111 106,19.5C 106.667,29.8333 106.667,40.1667 106,50.5C 94.2157,57.3074 82.3824,63.974 70.5,70.5C 60.5403,65.52 50.8736,60.02 41.5,54C 39.3496,52.5886 37.0163,51.7553 34.5,51.5C 34.3335,40.8281 34.5002,30.1615 35,19.5C 36.0945,17.9221 36.9278,16.2554 37.5,14.5 Z"/></g>
<g><path style="opacity:0.891" fill="#d7e6fa" d="M 150.5,39.5 C 157.5,39.5 164.5,39.5 171.5,39.5C 174.089,75.3525 176.089,75.3525 177.5,39.5C 184.5,39.5 191.5,39.5 198.5,39.5C 198.5,66.8333 198.5,94.1667 198.5,121.5C 193.5,121.5 188.5,121.5 183.5,121.5C 183.827,70.8978 182.827,70.8978 180.5,121.5C 176.563,121.793 172.73,121.46 169,120.5C 167.88,110.179 166.88,99.8452 166,89.5C 165.709,100.187 165.209,110.854 164.5,121.5C 159.833,121.5 155.167,121.5 150.5,121.5C 150.5,94.1667 150.5,66.8333 150.5,39.5 Z"/></g>
<g><path style="opacity:0.748" fill="#d7e6fa" d="M 260.5,39.5 C 266.167,39.5 271.833,39.5 277.5,39.5C 277.5,43.5 277.5,47.5 277.5,51.5C 272.156,51.666 266.823,51.4994 261.5,51C 260.54,47.27 260.207,43.4367 260.5,39.5 Z"/></g>
<g><path style="opacity:0.923" fill="#d7e6fa" d="M 369.5,39.5 C 377.507,39.3336 385.507,39.5003 393.5,40C 400.116,41.6156 403.949,45.7823 405,52.5C 405.667,72.1667 405.667,91.8333 405,111.5C 403.904,116.26 401.071,119.427 396.5,121C 387.506,121.5 378.506,121.666 369.5,121.5C 369.5,94.1667 369.5,66.8333 369.5,39.5 Z M 385.5,54.5 C 387.776,54.7565 388.943,56.0898 389,58.5C 389.667,72.8333 389.667,87.1667 389,101.5C 388.902,103.619 388.069,105.286 386.5,106.5C 385.5,89.1795 385.167,71.8461 385.5,54.5 Z"/></g>
<g><path style="opacity:0.874" fill="#d7e6fa" d="M 240.5,45.5 C 245.833,45.5 251.167,45.5 256.5,45.5C 256.784,48.7766 256.451,51.9433 255.5,55C 256.793,55.49 258.127,55.6567 259.5,55.5C 259.5,59.5 259.5,63.5 259.5,67.5C 258.5,67.5 257.5,67.5 256.5,67.5C 256.333,81.504 256.5,95.504 257,109.5C 258.011,110.337 259.178,110.67 260.5,110.5C 260.5,91.5 260.5,72.5 260.5,53.5C 266.167,53.5 271.833,53.5 277.5,53.5C 277.5,76.1667 277.5,98.8333 277.5,121.5C 272.167,121.5 266.833,121.5 261.5,121.5C 261.167,108.167 260.833,108.167 260.5,121.5C 255.821,121.666 251.155,121.499 246.5,121C 243.619,119.749 241.786,117.583 241,114.5C 240.5,98.8369 240.333,83.1702 240.5,67.5C 239.5,67.5 238.5,67.5 237.5,67.5C 237.5,63.5 237.5,59.5 237.5,55.5C 238.5,55.5 239.5,55.5 240.5,55.5C 240.5,52.1667 240.5,48.8333 240.5,45.5 Z"/></g>
<g><path style="opacity:0.904" fill="#d7e6fa" d="M 213.5,52.5 C 224.693,51.0118 231.86,55.6784 235,66.5C 235.667,80.5 235.667,94.5 235,108.5C 230.561,121.991 221.727,125.824 208.5,120C 204.618,116.736 202.451,112.57 202,107.5C 201.333,94.5 201.333,81.5 202,68.5C 203.015,61.0063 206.849,55.6729 213.5,52.5 Z M 217.5,66.5 C 219.045,67.2297 219.878,68.563 220,70.5C 220.922,83.5566 220.589,96.5566 219,109.5C 217.518,95.3239 217.018,80.9906 217.5,66.5 Z"/></g>
<g><path style="opacity:0.904" fill="#d7e6fa" d="M 292.5,52.5 C 303.693,51.0118 310.86,55.6784 314,66.5C 314.667,80.5 314.667,94.5 314,108.5C 309.561,121.991 300.727,125.824 287.5,120C 283.618,116.736 281.451,112.57 281,107.5C 280.333,94.5 280.333,81.5 281,68.5C 282.015,61.0063 285.849,55.6729 292.5,52.5 Z M 296.5,66.5 C 298.045,67.2297 298.878,68.563 299,70.5C 299.922,83.5566 299.589,96.5566 298,109.5C 296.518,95.3239 296.018,80.9906 296.5,66.5 Z"/></g>
<g><path style="opacity:0.882" fill="#d7e6fa" d="M 339.5,52.5 C 345.859,51.6859 350.026,54.3526 352,60.5C 352.5,80.8306 352.667,101.164 352.5,121.5C 347.167,121.5 341.833,121.5 336.5,121.5C 336.667,103.164 336.5,84.8303 336,66.5C 334.514,84.6802 334.014,103.014 334.5,121.5C 329.167,121.5 323.833,121.5 318.5,121.5C 318.5,98.8333 318.5,76.1667 318.5,53.5C 323.833,53.5 329.167,53.5 334.5,53.5C 334.351,54.552 334.517,55.552 335,56.5C 336.397,54.9297 337.897,53.5964 339.5,52.5 Z"/></g>
<g><path style="opacity:0.894" fill="#d7e6fa" d="M 420.5,52.5 C 432.631,50.6438 440.131,55.6438 443,67.5C 443.5,74.8258 443.666,82.1591 443.5,89.5C 437.158,89.3338 430.825,89.5005 424.5,90C 425.149,96.445 425.816,102.945 426.5,109.5C 427.086,109.291 427.586,108.957 428,108.5C 428.499,103.511 428.666,98.5111 428.5,93.5C 433.5,93.5 438.5,93.5 443.5,93.5C 445.343,103.589 443.01,112.422 436.5,120C 422.928,125.629 414.095,121.463 410,107.5C 409.333,94.1667 409.333,80.8333 410,67.5C 411.075,60.6456 414.575,55.6456 420.5,52.5 Z M 425.5,66.5 C 427.423,70.0293 428.089,74.0293 427.5,78.5C 426.448,78.6495 425.448,78.4828 424.5,78C 425.46,74.27 425.793,70.4367 425.5,66.5 Z"/></g>
<g><path style="opacity:0.851" fill="#d7e6fa" d="M 443.5,53.5 C 448.167,53.5 452.833,53.5 457.5,53.5C 459.82,90.7701 461.487,90.7701 462.5,53.5C 467.167,53.5 471.833,53.5 476.5,53.5C 475.453,76.2554 473.453,98.9221 470.5,121.5C 463.833,121.5 457.167,121.5 450.5,121.5C 447.435,98.9138 445.102,76.2471 443.5,53.5 Z"/></g>
<g><path style="opacity:0.611" fill="#0ea5ea" d="M 27.5,57.5 C 39.9884,62.4135 51.655,68.9135 62.5,77C 63.448,77.4828 64.448,77.6495 65.5,77.5C 65.8326,91.8488 65.4993,106.182 64.5,120.5C 56.8333,125 49.1667,129.5 41.5,134C 35.6627,135.992 31.8294,134.158 30,128.5C 29.8322,118.483 29.3322,108.483 28.5,98.5C 19.967,92.8025 11.3003,87.3025 2.5,82C 1.04583,78.5074 1.37916,75.1741 3.5,72C 11.9769,67.8037 19.9769,62.9704 27.5,57.5 Z"/></g>
<g><path style="opacity:0.611" fill="#0ea5ea" d="M 106.5,57.5 C 107.873,57.3433 109.207,57.51 110.5,58C 119.25,62.7899 127.75,67.9566 136,73.5C 137.547,76.8548 137.047,80.0215 134.5,83C 126.249,88.0417 118.082,93.2084 110,98.5C 109.333,109.167 108.667,119.833 108,130.5C 104.994,134.282 101.16,135.282 96.5,133.5C 88.6164,128.973 80.7831,124.306 73,119.5C 72.7576,105.829 73.0909,92.1619 74,78.5C 84.6429,71.1021 95.4763,64.1021 106.5,57.5 Z"/></g>
</svg>
